<svg width="1078" height="294" viewBox="0 0 1078 294" fill="none" xmlns="http://www.w3.org/2000/svg">
<path d="M176.244 223H121.898L89.2324 168.947C86.791 164.846 84.4473 161.184 82.2012 157.961C79.9551 154.738 77.6602 152.004 75.3164 149.758C73.0703 147.414 70.6777 145.656 68.1387 144.484C65.6973 143.215 63.0117 142.58 60.082 142.58H47.3379V223H0.0234375V12.9414H75.0234C126 12.9414 151.488 31.9844 151.488 70.0703C151.488 77.3945 150.365 84.1816 148.119 90.4316C145.873 96.584 142.699 102.15 138.598 107.131C134.496 112.111 129.516 116.408 123.656 120.021C117.895 123.635 111.449 126.467 104.32 128.518V129.104C107.445 130.08 110.473 131.691 113.402 133.938C116.332 136.086 119.164 138.625 121.898 141.555C124.633 144.484 127.221 147.658 129.662 151.076C132.201 154.396 134.496 157.668 136.547 160.891L176.244 223ZM47.3379 48.3906V106.838H67.8457C78.002 106.838 86.1562 103.908 92.3086 98.0488C98.5586 92.0918 101.684 84.7188 101.684 75.9297C101.684 57.5703 90.6973 48.3906 68.7246 48.3906H47.3379ZM334.301 73L273.363 235.012C258.715 273.977 236.645 293.459 207.152 293.459C195.922 293.459 186.693 292.189 179.467 289.65V252.736C185.619 256.35 192.309 258.156 199.535 258.156C211.449 258.156 219.75 252.541 224.438 241.311L232.348 222.707L171.41 73H222.68L250.658 164.26C252.416 169.924 253.783 176.613 254.76 184.328H255.346C256.225 178.664 257.836 172.072 260.18 164.553L288.451 73H334.301ZM495.434 223H449.291V200.148H448.559C437.133 217.824 421.85 226.662 402.709 226.662C367.943 226.662 350.561 205.617 350.561 163.527V73H396.703V159.426C396.703 180.617 405.102 191.213 421.898 191.213C430.199 191.213 436.84 188.332 441.82 182.57C446.801 176.711 449.291 168.801 449.291 158.84V73H495.434V223ZM751.781 73L708.568 223H659.936L637.816 135.109C636.352 129.25 635.521 122.854 635.326 115.92H634.447C633.764 123.537 632.787 129.738 631.518 134.523L607.787 223H559.74L517.406 73H564.574L585.229 170.852C586.205 175.441 586.938 181.008 587.426 187.551H588.305C588.793 180.715 589.672 174.953 590.941 170.266L616.723 73H660.814L683.959 170.852C684.545 173.293 685.229 178.957 686.01 187.844H687.035C687.523 182.18 688.305 176.516 689.379 170.852L708.861 73H751.781ZM797.338 49.2695C789.525 49.2695 783.129 46.9746 778.148 42.3848C773.168 37.6973 770.678 31.9844 770.678 25.2461C770.678 18.3125 773.168 12.6484 778.148 8.25391C783.129 3.85938 789.525 1.66211 797.338 1.66211C805.248 1.66211 811.645 3.85938 816.527 8.25391C821.508 12.6484 823.998 18.3125 823.998 25.2461C823.998 32.2773 821.508 38.0391 816.527 42.5312C811.645 47.0234 805.248 49.2695 797.338 49.2695ZM820.189 223H773.9V73H820.189V223ZM1009.45 223H953.93L906.029 148.586H905.443V223H859.154V0.929688H905.443V142.287H906.029L950.707 73H1005.64L951.879 143.459L1009.45 223ZM1050.46 49.2695C1042.65 49.2695 1036.25 46.9746 1031.27 42.3848C1026.29 37.6973 1023.8 31.9844 1023.8 25.2461C1023.8 18.3125 1026.29 12.6484 1031.27 8.25391C1036.25 3.85938 1042.65 1.66211 1050.46 1.66211C1058.37 1.66211 1064.77 3.85938 1069.65 8.25391C1074.63 12.6484 1077.12 18.3125 1077.12 25.2461C1077.12 32.2773 1074.63 38.0391 1069.65 42.5312C1064.77 47.0234 1058.37 49.2695 1050.46 49.2695ZM1073.31 223H1027.03V73H1073.31V223Z" fill="white"/>
</svg>
